<?xml version="1.0" encoding="UTF-8" standalone="no"?>
<svg
   viewBox="2882.002 606 1024 1024"
   width="1024"
   height="1024"
   version="1.1"
   id="svg3"
   sodipodi:docname="goxlr-utility.svg"
   inkscape:export-filename="goxlr-1024px-white.png"
   inkscape:export-xdpi="96"
   inkscape:export-ydpi="96"
   inkscape:version="1.2.2 (b0a8486541, 2022-12-01)"
   xmlns:inkscape="http://www.inkscape.org/namespaces/inkscape"
   xmlns:sodipodi="http://sodipodi.sourceforge.net/DTD/sodipodi-0.dtd"
   xmlns="http://www.w3.org/2000/svg"
   xmlns:svg="http://www.w3.org/2000/svg">
  <defs
     id="defs7">
    <linearGradient
       id="linearGradient3152"
       inkscape:swatch="solid">
      <stop
         style="stop-color:#000000;stop-opacity:1;"
         offset="0"
         id="stop3150" />
    </linearGradient>
  </defs>
  <sodipodi:namedview
     id="namedview5"
     pagecolor="#505050"
     bordercolor="#eeeeee"
     borderopacity="1"
     inkscape:showpageshadow="0"
     inkscape:pageopacity="0"
     inkscape:pagecheckerboard="0"
     inkscape:deskcolor="#505050"
     showgrid="false"
     inkscape:zoom="0.7179365"
     inkscape:cx="424.13222"
     inkscape:cy="559.24166"
     inkscape:window-width="2301"
     inkscape:window-height="1220"
     inkscape:window-x="0"
     inkscape:window-y="0"
     inkscape:window-maximized="0"
     inkscape:current-layer="svg3"
     showguides="true">
    <sodipodi:guide
       position="153.37877,874.90555"
       orientation="0,-1"
       id="guide222"
       inkscape:locked="false" />
  </sodipodi:namedview>
  <path
     id="crossflat19"
     fill="#000000"
     fill-rule="evenodd"
     stroke="none"
     d="m 3804.4281,634.86601 c 20.108,-20.07198 52.6272,-20.07198 72.7348,0 20.0176,20.07198 20.0176,52.60846 0,72.68158 l -333.0672,333.06171 c -20.1092,20.0719 -52.631,20.0719 -72.7386,0 -20.0188,-20.0732 -20.0188,-52.60968 0,-72.68162 z m -893.5879,0 c -20.0172,20.07198 -20.0172,52.60846 0,72.68158 l 333.0672,333.06171 c 20.1088,20.0719 52.63,20.0719 72.7376,0 20.02,-20.0732 20.02,-52.60968 0,-72.68162 L 2983.577,634.86601 c -20.1096,-20.07198 -52.6276,-20.07198 -72.7368,0 z m 560.5177,560.52479 c -20.0168,20.0729 -20.0168,52.6096 0,72.6815 l 333.0702,333.0617 c 20.108,20.072 52.6272,20.072 72.7364,0 20.018,-20.0718 20.018,-52.6086 0,-72.6814 l -333.068,-333.0618 c -20.1084,-20.072 -52.6294,-20.072 -72.7386,0 z m -154.7129,0 c -20.1076,-20.072 -52.6288,-20.072 -72.7376,0 l -333.0672,333.0618 c -20.0172,20.0728 -20.0172,52.6184 0,72.6814 20.1092,20.072 52.6272,20.072 72.7368,0 l 333.068,-333.0617 c 20.02,-20.072 20.02,-52.6086 0,-72.6815 z"
     style="fill:#ffffff;fill-opacity:1;stroke:#000000;stroke-width:27.8084;stroke-dasharray:none;stroke-dashoffset:0;stroke-opacity:1" />
</svg>
