/* XPM */
static char *goxlr_utility[] = {
/* columns rows colors chars-per-pixel */
"32 32 21 1 ",
"  c None",
". c #1C1C1C",
"X c #1D1D1D",
"o c #1E1E1E",
"O c gray12",
"+ c #202020",
"@ c gray13",
"# c gray18",
"$ c #2F2F2F",
"% c gray19",
"& c gray57",
"* c #929292",
"= c #939393",
"- c gray58",
"; c gray78",
": c #C8C8C8",
"> c gray79",
", c #CBCBCB",
"< c #CFCFCF",
"1 c #D0D0D0",
"2 c #FFFFFF",
/* pixels */
"                                ",
"                                ",
"                                ",
"   %*X                    X-$   ",
"   *2<X                  X<2*   ",
"   X<2<X                X<2<X   ",
"    X,21X              X,21X    ",
"     X,21X            X,21X     ",
"      X,21X          X,21X      ",
"       X,21X        X,21X       ",
"        X,21X      X,21X        ",
"         X<2<X    X<2<X         ",
"          X<2;X  X,2<X          ",
"           X,;+  X,;X           ",
"            X+    +X            ",
"                                ",
"                                ",
"            XX    XX            ",
"           X,,+  +,,X           ",
"          X<2;X  X,2<X          ",
"         X<2<X    X<2<X         ",
"        X,2<X      X,21X        ",
"       X,2<X        X,21X       ",
"      X,2<X          X,21X      ",
"     X,21X            X,21X     ",
"    X,21X              X,21X    ",
"   X<2<X                X<2<X   ",
"   *2<X                  X<2*   ",
"   $*X                    X*$   ",
"                                ",
"                                ",
"                                "
};
