<?xml version="1.0" encoding="UTF-8" standalone="no"?>
<svg viewBox="2882.002 606 128 128" width="128" height="128" version="1.1" id="svg3" sodipodi:docname="GoXLR.svg" inkscape:export-filename="goxlr-icon-light.png" inkscape:export-xdpi="48" inkscape:export-ydpi="48" inkscape:version="1.2.1 (9c6d41e410, 2022-07-14)" xmlns:inkscape="http://www.inkscape.org/namespaces/inkscape" xmlns:sodipodi="http://sodipodi.sourceforge.net/DTD/sodipodi-0.dtd" xmlns="http://www.w3.org/2000/svg" xmlns:svg="http://www.w3.org/2000/svg">
  <defs id="defs7"/>
  <sodipodi:namedview id="namedview5" pagecolor="#505050" bordercolor="#eeeeee" borderopacity="1" inkscape:showpageshadow="0" inkscape:pageopacity="0" inkscape:pagecheckerboard="0" inkscape:deskcolor="#505050" showgrid="false" inkscape:zoom="4.6681818" inkscape:cx="48.305745" inkscape:cy="104.43038" inkscape:window-width="2301" inkscape:window-height="1220" inkscape:window-x="0" inkscape:window-y="0" inkscape:window-maximized="0" inkscape:current-layer="svg3" showguides="true">
    <sodipodi:guide position="153.37877,-21.09445" orientation="0,-1" id="guide222" inkscape:locked="false"/>
  </sodipodi:namedview>
  <path id="crossflat19" fill="#000000" fill-rule="evenodd" stroke="none" d="m 2985.8412,623.10225 c 1.9518,-1.9484 5.1085,-1.9484 7.0602,0 1.9431,1.94838 1.9431,5.10669 0,7.05518 l -32.3302,32.33026 c -1.9519,1.94838 -5.1087,1.94838 -7.0606,0 -1.9431,-1.94849 -1.9431,-5.10681 0,-7.05519 z m -86.7388,0 c -1.9431,1.94838 -1.9431,5.10669 0,7.05518 l 32.3302,32.33026 c 1.9519,1.94838 5.1086,1.94838 7.0604,0 1.9433,-1.94849 1.9433,-5.10681 0,-7.05519 l -32.3302,-32.33025 c -1.9519,-1.9484 -5.1086,-1.9484 -7.0604,0 z m 54.4083,54.41006 c -1.943,1.94849 -1.943,5.10682 0,7.05519 l 32.3305,32.33026 c 1.9518,1.94838 5.1085,1.94838 7.0604,0 1.943,-1.94838 1.943,-5.10671 0,-7.05518 l -32.3303,-32.33027 c -1.9519,-1.94838 -5.1086,-1.94838 -7.0606,0 z m -15.0177,0 c -1.9518,-1.94838 -5.1085,-1.94838 -7.0604,0 l -32.3302,32.33027 c -1.9431,1.94847 -1.9431,5.10766 0,7.05518 1.9518,1.94838 5.1085,1.94838 7.0604,0 l 32.3302,-32.33026 c 1.9433,-1.94838 1.9433,-5.1067 0,-7.05519 z" style="fill:#000000;stroke-width:0.879256;fill-opacity:1"/>
</svg>