<?xml version="1.0" encoding="UTF-8" standalone="no"?>
<svg
   viewBox="2882.002 606 256 256"
   width="256"
   height="256"
   version="1.1"
   id="svg3"
   sodipodi:docname="GoXLR.svg"
   inkscape:export-filename="goxlr-icon-white.png"
   inkscape:export-xdpi="96"
   inkscape:export-ydpi="96"
   inkscape:version="1.2.2 (b0a8486541, 2022-12-01)"
   xmlns:inkscape="http://www.inkscape.org/namespaces/inkscape"
   xmlns:sodipodi="http://sodipodi.sourceforge.net/DTD/sodipodi-0.dtd"
   xmlns="http://www.w3.org/2000/svg"
   xmlns:svg="http://www.w3.org/2000/svg">
  <defs
     id="defs7">
    <linearGradient
       id="linearGradient3152"
       inkscape:swatch="solid">
      <stop
         style="stop-color:#000000;stop-opacity:1;"
         offset="0"
         id="stop3150" />
    </linearGradient>
  </defs>
  <sodipodi:namedview
     id="namedview5"
     pagecolor="#505050"
     bordercolor="#eeeeee"
     borderopacity="1"
     inkscape:showpageshadow="0"
     inkscape:pageopacity="0"
     inkscape:pagecheckerboard="0"
     inkscape:deskcolor="#505050"
     showgrid="false"
     inkscape:zoom="2.8717459"
     inkscape:cx="62.15731"
     inkscape:cy="132.4978"
     inkscape:window-width="2301"
     inkscape:window-height="1220"
     inkscape:window-x="0"
     inkscape:window-y="0"
     inkscape:window-maximized="0"
     inkscape:current-layer="svg3"
     showguides="true">
    <sodipodi:guide
       position="153.37877,106.90555"
       orientation="0,-1"
       id="guide222"
       inkscape:locked="false" />
  </sodipodi:namedview>
  <path
     id="crossflat19"
     fill="#000000"
     fill-rule="evenodd"
     stroke="none"
     d="m 3112.6086,613.21654 c 5.027,-5.01799 13.1568,-5.01799 18.1837,0 5.0044,5.01799 5.0044,13.1521 0,18.17037 l -83.2668,83.26534 c -5.0273,5.01795 -13.1578,5.01795 -18.1847,0 -5.0047,-5.01829 -5.0047,-13.15242 0,-18.1704 z m -223.397,0 c -5.0043,5.01799 -5.0043,13.1521 0,18.17037 l 83.2668,83.26534 c 5.0272,5.01795 13.1575,5.01795 18.1844,0 5.005,-5.01829 5.005,-13.15242 0,-18.1704 l -83.267,-83.26531 c -5.0274,-5.01799 -13.1569,-5.01799 -18.1842,0 z m 140.1294,140.13103 c -5.0042,5.01822 -5.0042,13.15238 0,18.17034 l 83.2676,83.26532 c 5.027,5.01798 13.1568,5.01798 18.1841,0 5.0045,-5.01794 5.0045,-13.15212 0,-18.17032 l -83.267,-83.26534 c -5.0271,-5.018 -13.1574,-5.018 -18.1847,0 z m -38.6782,0 c -5.0269,-5.018 -13.1572,-5.018 -18.1844,0 l -83.2668,83.26534 c -5.0043,5.0182 -5.0043,13.15459 0,18.17032 5.0273,5.01798 13.1568,5.01798 18.1842,0 l 83.267,-83.26532 c 5.005,-5.01798 5.005,-13.15212 0,-18.17034 z"
     style="fill:#ffffff;fill-opacity:1;stroke:#000000;stroke-width:6.95211;stroke-dasharray:none;stroke-opacity:1;stroke-dashoffset:0" />
</svg>
